<?xml version="1.0" standalone="no"?>
<!DOCTYPE svg PUBLIC "-//W3C//DTD SVG 20010904//EN"
 "http://www.w3.org/TR/2001/REC-SVG-20010904/DTD/svg10.dtd">
<svg version="1.0" xmlns="http://www.w3.org/2000/svg"
 width="800.000000pt" height="800.000000pt" viewBox="0 0 800.000000 800.000000"
 preserveAspectRatio="xMidYMid meet">
<metadata>
Created by potrace 1.14, written by Peter Selinger 2001-2017
</metadata>
<g transform="translate(0.000000,800.000000) scale(0.100000,-0.100000)"
fill="#000000" stroke="none">
<path d="M3766 7249 c-16 -4 -33 -6 -37 -3 -4 2 -10 0 -13 -5 -3 -5 -23 -12
-43 -16 -21 -4 -49 -15 -64 -26 -15 -10 -30 -19 -33 -19 -3 0 -45 -27 -93 -60
-48 -33 -97 -66 -107 -72 -11 -7 -38 -33 -62 -57 -36 -38 -44 -55 -53 -107
-10 -54 -17 -68 -65 -118 -38 -41 -54 -65 -53 -84 0 -15 -1 -52 -2 -82 -1 -30
7 -94 17 -143 19 -83 21 -94 23 -99 0 -2 2 -12 3 -23 2 -11 6 -35 10 -53 4
-18 4 -31 -1 -30 -4 1 -20 -6 -36 -16 -26 -18 -27 -21 -23 -90 11 -168 83
-322 158 -333 30 -5 50 -37 71 -118 10 -38 31 -92 48 -119 16 -27 28 -50 26
-53 -2 -2 -26 -6 -53 -9 -91 -9 -187 -45 -286 -106 -126 -77 -213 -176 -304
-343 -20 -38 -38 -71 -40 -73 -2 -4 -121 -33 -149 -36 -21 -3 -66 -26 -150
-77 -27 -17 -61 -35 -75 -41 -59 -25 -201 -278 -270 -481 -23 -67 -45 -131
-50 -142 -17 -39 -31 -96 -55 -226 -3 -13 -7 -33 -9 -44 -3 -11 -14 -63 -25
-115 -31 -143 -58 -255 -84 -355 -54 -204 -110 -406 -139 -500 -17 -55 -33
-104 -34 -110 -17 -57 -48 -132 -79 -185 -21 -36 -46 -81 -57 -100 -11 -19
-24 -39 -28 -45 -9 -11 -40 -113 -38 -123 1 -4 -1 -14 -5 -22 -22 -58 -30
-104 -29 -167 1 -68 -26 -176 -68 -268 -18 -40 -45 -131 -46 -155 0 -14 -6
-51 -13 -82 -14 -68 -18 -162 -9 -236 5 -42 2 -57 -13 -76 -10 -13 -19 -29
-19 -35 0 -6 -4 -11 -10 -11 -5 0 -10 -6 -10 -14 0 -7 -6 -19 -14 -26 -8 -6
-13 -17 -11 -23 2 -7 6 -32 9 -57 4 -43 21 -125 32 -162 3 -10 9 -18 14 -18 4
0 33 -16 63 -36 l55 -36 -4 -46 c-2 -26 -6 -69 -9 -97 -3 -27 -8 -92 -10 -143
-5 -87 -4 -94 14 -99 22 -6 21 -31 -5 -92 -13 -32 -76 -239 -124 -411 -10 -36
-22 -73 -25 -82 -7 -17 8 -18 223 -18 l229 0 0 28 c-1 15 5 50 11 77 7 28 14
64 16 80 2 17 8 48 12 70 14 70 6 257 -12 286 -3 6 2 19 12 30 10 11 46 84 81
162 61 140 63 142 120 181 32 21 58 37 58 36 0 -2 26 14 58 34 31 20 57 40 57
44 0 4 -5 25 -10 47 -11 46 2 102 51 227 17 42 32 82 33 90 1 7 12 51 25 98
22 81 27 90 94 160 l71 75 3 105 c3 158 7 174 73 319 33 73 58 141 56 150 -3
9 -8 41 -11 71 -4 30 -9 58 -11 61 -8 14 19 75 43 97 13 12 21 22 17 22 -3 0
-2 6 4 13 37 45 125 224 152 307 l20 65 -6 -95 c-3 -52 -8 -108 -11 -125 -2
-16 -6 -100 -8 -185 -2 -85 -6 -180 -9 -210 -4 -30 -9 -77 -12 -105 -12 -107
-24 -186 -43 -266 -18 -78 -22 -102 -36 -199 -3 -19 -8 -51 -11 -70 -3 -19 -8
-80 -11 -135 -6 -95 -6 -132 -2 -355 1 -60 -4 -115 -14 -150 -9 -34 -15 -90
-14 -145 2 -78 5 -95 27 -126 14 -19 42 -43 62 -51 l38 -16 -14 -39 c-7 -21
-16 -60 -20 -88 -4 -27 -8 -59 -10 -70 -25 -145 -25 -172 0 -350 3 -22 6 -66
7 -97 l2 -58 1339 0 1339 0 -8 63 c-4 34 -9 109 -11 167 -9 232 -10 245 -55
469 l-10 54 39 36 c42 39 86 122 78 149 -3 9 -7 37 -10 62 -6 41 -12 78 -20
105 -11 39 -18 119 -21 235 -3 150 -4 160 -40 255 -19 49 -27 94 -31 168 -3
56 -7 122 -10 147 -2 25 -6 110 -9 190 -5 126 -24 322 -40 415 -12 64 -35 182
-44 218 -5 20 -6 37 -2 37 12 0 50 -65 72 -125 27 -71 28 -73 30 -150 1 -53 9
-75 72 -195 74 -142 74 -140 63 -266 -5 -45 32 -123 84 -178 25 -26 47 -53 49
-59 2 -7 9 -25 16 -42 7 -16 28 -68 46 -115 18 -47 51 -112 73 -145 l41 -60
-1 -104 -1 -104 123 -58 122 -58 47 -88 c26 -48 53 -95 60 -103 8 -8 14 -19
15 -25 4 -25 36 -64 54 -67 17 -2 20 -9 18 -33 -14 -141 5 -241 64 -343 30
-51 74 -175 74 -208 0 -27 -41 -145 -58 -165 -6 -8 -23 -29 -38 -47 l-26 -32
258 2 257 3 15 60 c11 49 12 74 2 135 -21 137 -73 316 -126 437 -8 17 -14 35
-14 40 0 5 -14 31 -31 59 -37 57 -72 151 -59 159 4 3 7 17 5 33 -2 15 -6 54
-9 87 -6 68 -30 197 -40 213 -3 6 25 34 64 64 67 51 69 55 71 98 4 112 -4 188
-20 200 -4 3 -16 19 -28 35 -15 23 -22 52 -26 121 -4 51 -13 109 -21 130 -8
22 -41 113 -72 204 -31 91 -61 176 -67 190 -6 14 -10 27 -10 30 1 3 4 28 7 55
3 28 8 73 11 101 6 47 3 58 -48 160 -29 60 -74 141 -99 179 -24 39 -59 104
-77 145 -19 41 -44 98 -56 125 -12 28 -31 70 -42 95 -27 59 -74 196 -119 345
-48 159 -70 232 -93 308 -55 179 -137 467 -147 516 -3 13 -9 32 -15 43 -5 10
-7 18 -5 18 12 0 -47 135 -103 232 -34 60 -61 110 -61 114 0 3 -12 22 -27 42
-57 75 -130 140 -198 177 -38 21 -82 46 -96 56 -14 10 -29 16 -33 12 -3 -3 -6
-2 -6 4 0 5 -6 10 -12 10 -7 0 -52 6 -100 12 -78 12 -87 15 -92 37 -4 13 -11
24 -16 24 -6 0 -10 5 -10 11 0 19 -137 196 -173 223 -34 26 -299 138 -357 151
-41 9 -43 16 -17 56 26 39 54 124 62 189 3 25 7 54 10 65 2 11 4 23 4 27 1 4
14 14 29 22 24 12 50 48 49 66 0 3 5 15 11 27 7 12 14 39 18 60 3 21 8 47 11
58 4 11 8 47 9 80 2 33 4 62 5 65 6 20 -7 57 -27 73 -13 10 -21 23 -18 29 16
26 25 367 11 452 -5 31 -20 67 -40 95 -39 54 -224 240 -252 252 -11 5 -38 20
-60 33 -105 64 -185 97 -245 101 -25 2 -56 5 -70 8 -14 2 -38 0 -54 -4z"/>
</g>
</svg>
